<?xml version="1.0"?>
<svg xmlns="http://www.w3.org/2000/svg" viewBox="0 0 64 64">
    <path d="M 17.65625 4 C 16.32025 4 15.065094 4.5208437 14.121094 5.4648438 L 5.4648438 14.121094 C 4.5208438 15.066094 4 16.32125 4 17.65625 L 4 57 C 4 58.654 5.346 60 7 60 L 47 60 C 48.654 60 50 58.654 50 57 L 50 46 L 58 46 C 59.103 46 60 45.103 60 44 L 60 24 C 60 22.897 59.103 22 58 22 L 50 22 L 50 7 C 50 5.346 48.654 4 47 4 L 17.65625 4 z M 18 6 L 47 6 C 47.552 6 48 6.449 48 7 L 48 22 L 16 22 C 14.897 22 14 22.897 14 24 L 14 44 C 14 45.103 14.897 46 16 46 L 48 46 L 48 57 C 48 57.551 47.552 58 47 58 L 7 58 C 6.448 58 6 57.551 6 57 L 6 18 L 15 18 C 16.654 18 18 16.654 18 15 L 18 6 z M 16 6.4980469 L 16 15 C 16 15.551 15.552 16 15 16 L 6.4980469 16 C 6.6080469 15.835 6.7349062 15.679156 6.8789062 15.535156 L 15.535156 6.8789062 C 15.679156 6.7349062 15.834 6.6080469 16 6.4980469 z M 16 24 L 58 24 L 58 44 L 16 44 L 16 24 z M 25 28 C 24.447 28 24 28.448 24 29 L 24 39 C 24 39.552 24.447 40 25 40 C 25.553 40 26 39.552 26 39 L 26 36 L 29 36 C 30.654 36 32 34.654 32 33 L 32 31 C 32 29.346 30.654 28 29 28 L 25 28 z M 35 28 C 34.447 28 34 28.448 34 29 L 34 39 C 34 39.552 34.447 40 35 40 L 38 40 C 40.206 40 42 38.206 42 36 L 42 32 C 42 29.794 40.206 28 38 28 L 35 28 z M 45 28 C 44.447 28 44 28.448 44 29 L 44 39 C 44 39.552 44.447 40 45 40 C 45.553 40 46 39.552 46 39 L 46 36 L 49 36 C 49.553 36 50 35.552 50 35 C 50 34.448 49.553 34 49 34 L 46 34 L 46 30 L 50 30 C 50.553 30 51 29.552 51 29 C 51 28.448 50.553 28 50 28 L 45 28 z M 26 30 L 29 30 C 29.552 30 30 30.449 30 31 L 30 33 C 30 33.551 29.552 34 29 34 L 26 34 L 26 30 z M 36 30 L 38 30 C 39.103 30 40 30.897 40 32 L 40 36 C 40 37.103 39.103 38 38 38 L 36 38 L 36 30 z M 9 52 C 8.447 52 8 52.448 8 53 L 8 55 C 8 55.552 8.447 56 9 56 C 9.553 56 10 55.552 10 55 L 10 53 C 10 52.448 9.553 52 9 52 z M 14 52 C 13.447 52 13 52.448 13 53 L 13 55 C 13 55.552 13.447 56 14 56 C 14.553 56 15 55.552 15 55 L 15 53 C 15 52.448 14.553 52 14 52 z M 19 52 C 18.447 52 18 52.448 18 53 L 18 55 C 18 55.552 18.447 56 19 56 C 19.553 56 20 55.552 20 55 L 20 53 C 20 52.448 19.553 52 19 52 z M 24 52 C 23.447 52 23 52.448 23 53 L 23 55 C 23 55.552 23.447 56 24 56 C 24.553 56 25 55.552 25 55 L 25 53 C 25 52.448 24.553 52 24 52 z M 29 52 C 28.447 52 28 52.448 28 53 L 28 55 C 28 55.552 28.447 56 29 56 C 29.553 56 30 55.552 30 55 L 30 53 C 30 52.448 29.553 52 29 52 z M 34 52 C 33.447 52 33 52.448 33 53 L 33 55 C 33 55.552 33.447 56 34 56 C 34.553 56 35 55.552 35 55 L 35 53 C 35 52.448 34.553 52 34 52 z M 39 52 C 38.447 52 38 52.448 38 53 L 38 55 C 38 55.552 38.447 56 39 56 C 39.553 56 40 55.552 40 55 L 40 53 C 40 52.448 39.553 52 39 52 z M 44 52 C 43.447 52 43 52.448 43 53 L 43 55 C 43 55.552 43.447 56 44 56 C 44.553 56 45 55.552 45 55 L 45 53 C 45 52.448 44.553 52 44 52 z"/>
</svg>
